HIERARCHY
ROOT Hips
{
	OFFSET 0.000000 0.000000 0.000000 
	CHANNELS 6 Xposition Yposition Zposition Zrotation Yrotation Xrotation
	JOINT LeftUpLeg
	{
		OFFSET 1.363060 -1.794630 0.839290 
		CHANNELS 3 Zrotation Yrotation Xrotation
		JOINT LeftLeg
		{
			OFFSET 2.448110 -6.726130 0.000000 
			CHANNELS 3 Zrotation Yrotation Xrotation
			JOINT LeftFoot
			{
				OFFSET 2.562200 -7.039590 0.000000 
				CHANNELS 3 Zrotation Yrotation Xrotation
				JOINT LeftToeBase
				{
					OFFSET 0.157640 -0.433110 2.322550 
					CHANNELS 3 Zrotation Yrotation Xrotation
					End Site
					{
						OFFSET 0.000000 0.000000 0.000000 
					}
				}
			}
		}
	}
	JOINT RightUpLeg
	{
		OFFSET -1.305520 -1.794630 0.839290 
		CHANNELS 3 Zrotation Yrotation Xrotation
		JOINT RightLeg
		{
			OFFSET -2.542530 -6.985550 0.000000 
			CHANNELS 3 Zrotation Yrotation Xrotation
			JOINT RightFoot
			{
				OFFSET -2.568260 -7.056230 0.000000 
				CHANNELS 3 Zrotation Yrotation Xrotation
				JOINT RightToeBase
				{
					OFFSET -0.164730 -0.452590 2.363150 
					CHANNELS 3 Zrotation Yrotation Xrotation
					End Site
					{
						OFFSET 0.000000 0.000000 0.000000 
					}
				}
			}
		}
	}
	JOINT Spine
	{
		OFFSET 0.028270 2.035590 -0.193380 
		CHANNELS 3 Zrotation Yrotation Xrotation
		JOINT Spine1
		{
			OFFSET 0.056720 2.048850 -0.042750 
			CHANNELS 3 Zrotation Yrotation Xrotation
			JOINT Neck1
			{
				OFFSET -0.054170 1.746240 0.172020 
				CHANNELS 3 Zrotation Yrotation Xrotation
				JOINT Head
				{
					OFFSET 0.104070 1.761360 -0.123970 
					CHANNELS 3 Zrotation Yrotation Xrotation
					End Site
					{
						OFFSET 0.000000 0.000000 0.000000 
					}
				}
			}
			JOINT LeftArm
			{
				OFFSET 3.362410 1.200890 -0.311210 
				CHANNELS 3 Zrotation Yrotation Xrotation
				JOINT LeftForeArm
				{
					OFFSET 4.983000 -0.000000 -0.000000 
					CHANNELS 3 Zrotation Yrotation Xrotation
					JOINT LeftHand
					{
						OFFSET 3.483560 -0.000000 -0.000000 
						CHANNELS 3 Zrotation Yrotation Xrotation
						JOINT LeftHandIndex1
						{
							OFFSET 0.715260 -0.000000 -0.000000 
							CHANNELS 3 Zrotation Yrotation Xrotation
							End Site
							{
								OFFSET 0.000000 0.000000 0.000000 
							}
						}
					}
				}
			}
			JOINT RightArm
			{
				OFFSET -3.136600 1.374050 -0.404650 
				CHANNELS 3 Zrotation Yrotation Xrotation
				JOINT RightForeArm
				{
					OFFSET -5.241900 -0.000000 -0.000000 
					CHANNELS 3 Zrotation Yrotation Xrotation
					JOINT RightHand
					{
						OFFSET -3.444170 -0.000000 -0.000000 
						CHANNELS 3 Zrotation Yrotation Xrotation
						JOINT RightHandIndex1
						{
							OFFSET -0.622530 -0.000000 -0.000000 
							CHANNELS 3 Zrotation Yrotation Xrotation
							End Site
							{
								OFFSET 0.000000 0.000000 0.000000 
							}
						}
					}
				}
			}
		}
	}
}
MOTION
Frames: 10
Frame Time: 0.041667
-0.752893 17.464092 -47.663499 -0.452549 4.477935 18.926312 -11.256154 -2.096242 -11.318086 5.340032 15.261786 46.879821 2.910589 -2.069186 37.035257 0.691700 -5.316700 -14.814100 14.553629 8.559120 -44.023761 -1.496110 -13.389863 34.482698 -1.005929 2.928788 5.338227 -0.407100 4.096200 -11.347300 1.937840 -2.801921 -8.510398 -0.826222 -1.321599 0.014523 2.215646 -2.324477 12.380463 -1.241400 -0.887100 4.446800 -94.982419 0.795977 33.815605 27.855643 -45.073494 -11.684797 -0.190130 -0.411048 -11.015340 -7.125000 0.000000 0.000000 98.383960 -13.777689 -51.796260 -2.952489 9.800777 0.109544 -0.784540 0.614954 49.922023 7.125000 0.000000 0.000000 
-0.757822 17.494764 -47.411549 -0.596287 4.508975 18.681238 -11.172057 -2.236466 -12.563534 6.272896 15.949684 49.724514 2.992291 -2.072673 38.065059 1.594900 -7.965800 -22.610200 15.066930 8.239211 -43.212088 -1.571719 -13.416480 34.782529 -1.014675 3.038478 4.492889 -0.648300 5.150700 -14.338900 1.949881 -2.711666 -8.653474 -0.878979 -1.267110 -0.692906 2.255356 -2.493396 12.602876 -1.219800 -0.960700 4.565800 -95.110764 1.585048 33.939304 27.048805 -44.388208 -11.154639 -0.198218 -0.427693 -11.437707 -7.125000 0.000000 0.000000 98.507654 -13.703737 -49.097800 -2.985901 10.123061 0.084269 -0.823560 0.555540 47.399441 7.125000 0.000000 0.000000 
-0.760451 17.526970 -47.159160 -0.759063 4.385700 18.591157 -11.118517 -2.143480 -14.032216 7.103747 16.545222 52.503344 2.855606 -3.073694 37.191552 3.072200 -10.811000 -31.645200 15.552923 8.056736 -42.403913 -1.610383 -13.408799 34.932560 -0.976926 2.854131 3.559263 -1.296200 7.213300 -20.348900 1.962495 -2.587835 -8.587724 -0.900448 -1.182475 -0.464722 2.420772 -2.521231 12.641037 -1.089300 -0.975700 4.572900 -95.332352 1.562164 34.173030 26.014183 -43.541282 -10.501820 -0.200264 -0.447400 -11.601822 -7.125000 0.000000 0.000000 98.672880 -13.096883 -45.901415 -3.003599 10.517466 0.055758 -0.879708 0.488422 44.652235 7.125000 0.000000 0.000000 
-0.765162 17.558847 -46.912906 -0.893669 4.258492 18.625240 -11.042587 -2.026509 -15.698598 8.069019 17.114426 55.117154 2.509845 -1.637760 35.749704 2.363200 -9.584800 -27.642300 15.970965 7.952414 -41.734574 -1.653810 -13.417655 35.099851 -0.938019 2.631990 2.333160 -1.762400 8.352600 -23.790200 1.924960 -2.412853 -8.525174 -1.105641 -1.089467 -0.210675 2.606383 -2.524856 12.642501 -0.954200 -0.975900 4.542400 -95.433085 1.228582 34.473142 24.627726 -42.339155 -9.643476 -0.206084 -0.475616 -11.379423 -7.125000 0.000000 0.000000 98.975190 -12.366839 -43.786040 -3.010564 10.808410 0.019023 -0.916227 0.436441 43.064236 7.125000 0.000000 0.000000 
-0.769434 17.590067 -46.672568 -1.063144 4.242288 18.619491 -10.835191 -2.044083 -17.350496 8.951800 17.604628 57.555570 2.086958 -0.527040 33.606151 1.696300 -8.202600 -23.331000 16.400875 7.839439 -41.018450 -1.690699 -13.407565 35.238743 -0.940989 2.610163 1.368151 -1.526100 7.799900 -22.108000 1.916985 -2.124354 -8.576146 -1.085548 -0.928800 -0.424284 2.517731 -2.798158 12.857971 -1.035500 -1.102800 4.714900 -95.694083 1.150759 34.945857 23.247770 -41.053922 -8.789930 -0.235729 -0.495342 -10.724209 -7.125000 0.000000 0.000000 99.208787 -11.800160 -41.188476 -3.109602 11.263657 -0.049470 -0.934279 0.364458 40.497078 7.125000 0.000000 0.000000 
-0.771734 17.622273 -46.433215 -1.084073 4.304710 18.600507 -10.764776 -2.200908 -18.899057 9.681977 18.013885 59.828444 1.726709 -0.708321 31.053448 1.309000 -7.247500 -20.450800 16.650862 7.624539 -40.237554 -1.721808 -13.385925 35.342632 -1.010137 2.901791 0.736397 -0.952400 6.214900 -17.409300 1.943082 -2.156425 -8.491587 -1.112393 -0.923686 -0.069220 2.403573 -2.829093 12.826792 -1.066700 -1.127800 4.604500 -96.103435 1.326292 34.696148 22.086846 -39.993655 -8.120326 -0.269507 -0.510940 -9.786346 -7.125000 0.000000 0.000000 99.261727 -11.071358 -36.830000 -3.218862 11.933632 -0.107073 -0.982892 0.266820 36.833690 7.125000 0.000000 0.000000 
-0.772720 17.655355 -46.195506 -1.031540 4.238188 18.606298 -10.837575 -2.370253 -20.451104 10.337060 18.368717 61.918747 1.382030 -1.098112 28.106309 1.031500 -6.460300 -18.125800 16.826550 7.338161 -39.508638 -1.743189 -13.344847 35.390478 -1.115022 3.338703 0.108958 -0.658800 5.191200 -14.454600 1.948447 -2.044274 -8.520234 -1.028881 -0.845603 -0.137467 2.272465 -2.907235 13.056299 -1.122300 -1.167100 4.708400 -96.553305 1.626757 34.565868 20.888765 -38.810058 -7.430429 -0.304087 -0.526591 -8.660614 -7.125000 0.000000 0.000000 99.323724 -10.654612 -32.119321 -3.488776 12.856802 -0.189814 -1.021662 0.146608 32.713041 7.125000 0.000000 0.000000 
-0.775240 17.688985 -45.963821 -0.975413 4.099814 18.684708 -10.947763 -2.589107 -22.150192 10.964616 18.690735 63.881346 1.074793 -1.403803 25.083273 0.891700 -6.018800 -16.838900 17.028393 6.950838 -38.920200 -1.771321 -13.315466 35.461187 -1.216454 3.714714 -0.658351 -0.668000 5.226800 -14.556700 1.907789 -1.814470 -8.525818 -1.030336 -0.718499 -0.070452 2.228930 -3.072776 13.451929 -1.161300 -1.235700 4.961500 -96.842523 1.806586 34.594805 19.737794 -37.612815 -6.772781 -0.335913 -0.546384 -7.123754 -7.125000 0.000000 0.000000 99.575989 -10.273593 -27.049051 -3.912585 14.092773 -0.326384 -1.046966 -0.004881 27.962791 7.125000 0.000000 0.000000 
-0.779622 17.726339 -45.733013 -0.862210 3.954443 18.783398 -11.083510 -2.779973 -23.925931 11.494579 18.956819 65.504477 0.848099 -1.613830 22.499365 0.883100 -5.990500 -16.757000 17.180340 6.491284 -38.275970 -1.761217 -13.236100 35.369442 -1.305327 3.969882 -1.455571 -0.770500 5.605100 -15.642800 1.899522 -1.683287 -8.553024 -0.894186 -0.626030 -0.111407 2.231543 -3.123223 13.662270 -1.122500 -1.262000 5.037000 -97.174737 2.319898 34.314037 18.757767 -36.577299 -6.246526 -0.373608 -0.555523 -5.319375 -7.125000 0.000000 0.000000 99.570427 -9.955901 -22.503132 -4.368988 15.258927 -0.468537 -1.043217 -0.127323 23.920254 7.125000 0.000000 0.000000 
-0.814347 17.750329 -45.550294 -0.416882 4.619273 19.514963 -11.040279 -3.857943 -26.465401 11.998887 19.220772 66.971640 0.696744 -1.728677 20.754784 0.657200 -5.185100 -14.437300 17.053148 5.959735 -38.452789 -1.741826 -13.151468 35.215465 -1.280792 3.688181 -2.051903 -0.813800 5.756600 -16.079900 1.999755 -1.977172 -8.706828 -0.308240 -0.709248 -0.345832 2.235497 -3.135783 13.612067 -1.086900 -1.279000 4.938500 -97.601324 2.631694 33.839920 17.672147 -35.388559 -5.685498 -0.423458 -0.551291 -3.489690 -7.125000 0.000000 0.000000 99.500386 -9.363152 -18.993584 -4.812865 16.197863 -0.599233 -1.018165 -0.197471 20.978077 7.125000 0.000000 0.000000 
